<svg xmlns="http://www.w3.org/2000/svg" version="1.1" xmlns:xlink="http://www.w3.org/1999/xlink" xmlns:svgjs="http://svgjs.dev/svgjs" width="1500" height="503" viewBox="0 0 1500 503"><g transform="matrix(1,0,0,1,-0.9090909090909918,-0.5270467612882044)"><svg viewBox="0 0 396 133" data-background-color="#ffffff" preserveAspectRatio="xMidYMid meet" height="503" width="1500" xmlns="http://www.w3.org/2000/svg" xmlns:xlink="http://www.w3.org/1999/xlink"><g id="tight-bounds" transform="matrix(1,0,0,1,0.2400000000000091,0.13935828877004042)"><svg viewBox="0 0 395.52 132.7212834224599" height="132.7212834224599" width="395.52"><g><svg viewBox="0 0 395.52 132.7212834224599" height="132.7212834224599" width="395.52"><g><svg viewBox="0 0 395.52 132.7212834224599" height="132.7212834224599" width="395.52"><g id="textblocktransform"><svg viewBox="0 0 395.52 132.7212834224599" height="132.7212834224599" width="395.52" id="textblock"><g><svg viewBox="0 0 395.52 132.7212834224599" height="132.7212834224599" width="395.52"><g transform="matrix(1,0,0,1,0,0)"><svg width="395.52" viewBox="4.54 -36.57 109.55999999999999 36.77" height="132.7212834224599" data-palette-color="#000000"><path d="M4.54-35.99L10.5-35.99 10.5-4.44 27.05-4.44 27.05 0 4.54 0 4.54-35.99ZM41.31-12.01L51.27-35.99 57.96-35.99 47.26-14.65 47.26 0 41.31 0 41.31-12.01ZM31.15-35.99L37.84-35.99 43.26-21.97 40.62-15.58 31.15-35.99ZM81.54-30.42L81.54-30.42Q81.29-30.52 80.95-30.76 80.61-31.01 79.98-31.23 79.34-31.45 78.36-31.59 77.39-31.74 75.87-31.64L75.87-31.64 75.87-36.57Q78.02-36.52 80.24-36.11 82.47-35.69 83.83-34.81L83.83-34.81Q83.54-34.18 83.15-33.42 82.76-32.67 82.42-32.01 82.08-31.35 81.83-30.91 81.59-30.47 81.54-30.42ZM64.69-26.51L64.69-26.51Q64.69-28.66 65.42-30.37 66.16-32.08 67.4-33.37 68.65-34.67 70.33-35.42 72.02-36.18 73.87-36.43L73.87-36.43 73.87-31.3Q72.31-30.76 71.28-29.42 70.26-28.08 70.26-26.71L70.26-26.71Q70.26-24.8 71.28-23.63 72.31-22.46 73.87-21.58L73.87-21.58 73.87-16.02Q72.26-16.8 70.65-17.7 69.04-18.6 67.72-19.82 66.4-21.04 65.55-22.66 64.69-24.27 64.69-26.51ZM64.45-2.39L65.47-6.59Q66.16-6.2 67.21-5.83 68.26-5.47 69.38-5.15 70.5-4.83 71.63-4.64 72.75-4.44 73.73-4.44L73.73-4.44 73.87-4.44 73.87 0.2 73.77 0.2Q72.6 0.2 71.36 0.07 70.11-0.05 68.84-0.34 67.57-0.63 66.43-1.15 65.28-1.66 64.45-2.39L64.45-2.39ZM75.87-14.89L75.87-20.61Q77.49-19.87 79.17-19.04 80.85-18.21 82.22-17.02 83.59-15.82 84.47-14.11 85.35-12.4 85.35-9.86L85.35-9.86Q85.35-8.11 84.69-6.45 84.03-4.79 82.83-3.44 81.64-2.1 79.88-1.17 78.12-0.24 75.87 0.05L75.87 0.05 75.87-4.64Q79.88-5.62 79.88-9.96L79.88-9.96Q79.88-11.67 78.75-12.79 77.63-13.92 75.87-14.89L75.87-14.89ZM91.59 0L91.59-35.99 97.55-35.99 97.55 0 91.59 0ZM112.59-20.21L112.59-16.21 99.55-16.21 99.55-20.21 112.59-20.21ZM99.55 0L99.55-4.44 114.1-4.44 114.1 0 99.55 0ZM99.55-35.99L114.1-35.99 114.1-31.54 99.55-31.54 99.55-35.99Z" opacity="1" transform="matrix(1,0,0,1,0,0)" fill="#000000" class="wordmark-text-0" data-fill-palette-color="primary" id="text-0"></path></svg></g></svg></g></svg></g></svg></g></svg></g><defs></defs></svg><rect width="395.52" height="132.7212834224599" fill="none" stroke="none" visibility="hidden"></rect></g></svg></g></svg>